<?xml version="1.0" encoding="utf-8"?>
<!-- Generator: Adobe Illustrator 17.0.0, SVG Export Plug-In . SVG Version: 6.00 Build 0)  -->
<!DOCTYPE svg PUBLIC "-//W3C//DTD SVG 1.1//EN" "http://www.w3.org/Graphics/SVG/1.1/DTD/svg11.dtd">
<svg version="1.1" id="Layer_1" xmlns="http://www.w3.org/2000/svg" xmlns:xlink="http://www.w3.org/1999/xlink" x="0px" y="0px"
	 width="1224px" height="234.681px" viewBox="0 0 1224 234.681" enable-background="new 0 0 1224 234.681" xml:space="preserve">
<g>
	<circle fill="#EA3539" cx="603.033" cy="110.44" r="67.582"/>
	<path id="Facebook" fill="#FFFFFF" d="M591.111,82.871c0,2.268,0,12.391,0,12.391h-9.078v15.152h9.078v45.025h18.649v-45.025
		h12.513c0,0,1.172-7.265,1.74-15.21c-1.629,0-14.183,0-14.183,0s0-8.815,0-10.36c0-1.548,2.033-3.631,4.043-3.631
		c2.006,0,6.239,0,10.16,0c0-2.063,0-9.191,0-15.774c-5.235,0-11.189,0-13.815,0C590.65,65.44,591.111,80.606,591.111,82.871z"/>
</g>
<g>
	<circle fill="#EA3539" cx="969.791" cy="110.44" r="67.582"/>
	<path id="Twitter_2_" fill="#FFFFFF" d="M1011.332,89.739c-2.8,1.241-5.809,2.081-8.967,2.459c3.223-1.932,5.699-4.993,6.865-8.639
		c-3.017,1.789-6.358,3.089-9.915,3.788c-2.848-3.033-6.906-4.93-11.396-4.93c-8.622,0-15.613,6.99-15.613,15.613
		c0,1.224,0.137,2.416,0.404,3.559c-12.976-0.651-24.481-6.867-32.181-16.313c-1.344,2.305-2.114,4.987-2.114,7.85
		c0,5.416,2.756,10.194,6.945,12.995c-2.559-0.081-4.967-0.783-7.071-1.953c-0.002,0.065-0.002,0.131-0.002,0.196
		c0,7.565,5.382,13.875,12.524,15.31c-1.31,0.356-2.69,0.548-4.114,0.548c-1.005,0-1.983-0.099-2.937-0.281
		c1.987,6.203,7.753,10.718,14.585,10.843c-5.344,4.187-12.076,6.684-19.39,6.684c-1.261,0-2.503-0.075-3.725-0.219
		c6.909,4.429,15.116,7.015,23.933,7.015c28.718,0,44.423-23.791,44.423-44.423c0-0.676-0.015-1.35-0.045-2.02
		C1006.592,95.619,1009.239,92.869,1011.332,89.739z"/>
</g>
<g>
	<circle fill="#EA3539" cx="236.275" cy="110.44" r="67.582"/>
	<path fill="none" stroke="#FFFFFF" stroke-width="4" stroke-miterlimit="10" d="M277.031,82.872l-33.448,35.937
		c-2.19,2.353-5.855,2.501-8.187,0.331l-38.979-36.279c-1.886,0.235-3.352,1.827-3.352,3.777v45.181
		c0,2.112,1.712,3.825,3.825,3.825h79.56c2.112,0,3.825-1.712,3.825-3.825V86.638C280.275,84.724,278.866,83.153,277.031,82.872z"/>
	<line fill="none" stroke="#FFFFFF" stroke-width="4" stroke-miterlimit="10" x1="196.418" y1="82.861" x2="277.031" y2="82.872"/>
</g>
</svg>
