<?xml version="1.0" encoding="utf-8"?>
<!-- Generator: Adobe Illustrator 17.0.0, SVG Export Plug-In . SVG Version: 6.00 Build 0)  -->
<!DOCTYPE svg PUBLIC "-//W3C//DTD SVG 1.1//EN" "http://www.w3.org/Graphics/SVG/1.1/DTD/svg11.dtd">
<svg version="1.1" id="Layer_1" xmlns="http://www.w3.org/2000/svg" xmlns:xlink="http://www.w3.org/1999/xlink" x="0px" y="0px"
	 width="155.44px" height="149.123px" viewBox="0 0 155.44 149.123" enable-background="new 0 0 155.44 149.123"
	 xml:space="preserve">
<g>
	<path fill="none" stroke="#8DC63F" stroke-miterlimit="10" d="M76.429,3.846"/>
	<path fill="none" stroke="#8DC63F" stroke-miterlimit="10" d="M99.864,73.735"/>
	<path fill="none" stroke="#8DC63F" stroke-miterlimit="10" d="M99.864,73.735"/>
	<path fill="none" stroke="#8DC63F" stroke-miterlimit="10" d="M53.411,73.735"/>
	<path fill="none" stroke="#8DC63F" stroke-miterlimit="10" d="M53.411,73.735"/>
	<path fill="none" stroke="#8DC63F" stroke-miterlimit="10" d="M76.429,143.206"/>
	<circle fill="#EB3439" cx="76.429" cy="71.73" r="67.884"/>
	<path fill="#DDF1F5" d="M13.753,99.175c2.322,5.365,5.319,10.366,8.875,14.912h107.545c3.378-4.319,6.244-9.053,8.515-14.116
		c-4.122,3.738-9.594,6.016-15.596,6.016c-12.828,0-23.227-10.399-23.227-23.227c0,12.828-10.399,23.227-23.227,23.227
		S53.411,95.588,53.411,82.76c0,12.828-10.399,23.227-23.227,23.227C23.766,105.987,17.956,103.384,13.753,99.175z"/>
	<path fill="#DDF1F5" d="M18.379,108.018c12.035,19.396,33.514,32.319,58.019,32.319s45.984-12.923,58.019-32.319H18.379z"/>
</g>
<rect x="26.494" y="32.14" fill="none" width="152.288" height="77.392"/>
<text transform="matrix(1 0 0 1 26.4943 53.0294)" fill="#FFFFFF" font-family="'Helvetica-Bold'" font-size="15.1456">PINECREST</text>
<text transform="matrix(1 0 0 1 26.4943 66.6604)" fill="#FFFFFF" font-family="'Helvetica-Bold'" font-size="15.1456">COMMUNITY</text>
<text transform="matrix(1 0 0 1 26.4943 80.2914)" fill="#FFFFFF" font-family="'Helvetica-Bold'" font-size="15.1456">POOL</text>
</svg>
